<svg width="1238" height="260" viewBox="0 0 1238 260" fill="none" xmlns="http://www.w3.org/2000/svg">
<path d="M29.0096 77C30.3996 77.35 39.3296 79.24 39.5096 79.75C38.0096 81.72 33.7496 96.23 33.0096 96.75C32.2396 97.29 18.9996 92.6 17.0096 92C14.7696 91.32 0.379574 87.56 0.00957435 86.25C-0.200426 85.51 3.10957 73.37 3.50957 71.25C12.0296 72.97 20.5896 74.87 29.0096 77Z" fill="#092C48"/>
<path d="M200.509 35C197.779 38.42 195.259 42.08 192.509 45.5C179.889 61.19 167.569 77.08 154.009 92C153.739 91.7 149.759 88.16 149.509 88C149.039 81.95 150.769 60.83 152.509 56.75C153.079 55.41 170.999 40.7 174.509 37.5C179.649 32.81 184.539 28.41 189.509 23.5L200.509 35Z" fill="#092C48"/>
<path d="M202.509 32L192.009 20.5C194.539 17.96 210.819 0 212.259 0C212.919 0 221.889 8.11 222.009 8.75C222.309 10.4 204.799 29.14 202.509 32Z" fill="#092C48"/>
<path d="M202.509 32C202.309 32.26 203.359 32.81 203.009 33.25C202.389 34.03 201.069 34.3 200.509 35L189.509 23.5C189.649 23.36 189.739 22.78 192.009 20.5L202.509 32Z" fill="#FCFCFA"/>
<path d="M128.01 148.5V136C133.39 137.55 138.66 137.31 143.76 135C145.34 176.04 144.35 218.44 144.26 260L127.51 258.25L128.01 148.5Z" fill="#092C48"/>
<path d="M111.01 96.5C110.56 101.96 108.59 108.02 109.51 114C107.68 115.47 93.6698 121.04 92.7598 121C91.4598 120.94 72.8598 111.42 69.2598 110C58.1198 105.61 46.6098 102.26 35.5098 97.75C36.9598 95.79 41.4298 80.92 42.2598 80.5C45.4098 78.9 107.51 96.97 111.01 96.5Z" fill="#092C48"/>
<path d="M149.509 141.5C148.909 140.53 144.879 135.14 145.009 134.75C145.279 133.92 154.389 130.58 158.009 123.5C162.249 124.6 175.129 125.62 177.509 128.25C179.709 130.67 196.849 181.55 201.009 189.25C199.249 189.96 190.549 196.2 189.759 196C186.469 195.17 153.479 147.87 149.509 141.5Z" fill="#092C48"/>
<path d="M130.76 88C156.91 84.68 166.5 118.47 145.76 130C113.65 147.84 99.2698 92 130.76 88Z" fill="#092C48"/>
<path d="M133.26 101.5C145.85 99.36 147.8 118.03 136.26 119C124.41 119.99 123.58 103.15 133.26 101.5Z" fill="#D1E7F0"/>
<path d="M347.531 102.906H362.203L342.75 172H328.969L320.625 131.594L318.188 118.234L315.75 131.594L307.406 172H294L274.406 102.906H289.734L298.875 142.469L300.844 153.484L302.859 142.703L310.641 102.906H325.875L334.078 142.469L336.188 153.484L338.297 142.891L347.531 102.906ZM392.381 120.906V172H378.834V120.906H392.381ZM392.381 102.484V114.812H378.834V102.484H392.381ZM439.012 130.797C434.481 130.797 431.372 132.719 429.684 136.562C428.809 138.594 428.372 141.188 428.372 144.344V172H415.059V121H427.95V128.453C429.669 125.828 431.294 123.938 432.825 122.781C435.575 120.719 439.059 119.688 443.278 119.688C448.559 119.688 452.872 121.078 456.216 123.859C459.591 126.609 461.278 131.188 461.278 137.594V172H447.591V140.922C447.591 138.234 447.231 136.172 446.512 134.734C445.2 132.109 442.7 130.797 439.012 130.797ZM529.753 103V172H516.769V164.922C514.863 167.953 512.691 170.156 510.253 171.531C507.816 172.906 504.784 173.594 501.159 173.594C495.191 173.594 490.159 171.188 486.066 166.375C482.003 161.531 479.972 155.328 479.972 147.766C479.972 139.047 481.972 132.188 485.972 127.188C490.003 122.188 495.378 119.688 502.097 119.688C505.191 119.688 507.941 120.375 510.347 121.75C512.753 123.094 514.706 124.969 516.206 127.375V103H529.753ZM493.753 146.781C493.753 151.5 494.691 155.266 496.566 158.078C498.409 160.922 501.222 162.344 505.003 162.344C508.784 162.344 511.659 160.938 513.628 158.125C515.597 155.312 516.581 151.672 516.581 147.203C516.581 140.953 515.003 136.484 511.847 133.797C509.909 132.172 507.659 131.359 505.097 131.359C501.191 131.359 498.316 132.844 496.472 135.812C494.659 138.75 493.753 142.406 493.753 146.781ZM594.337 126.391C598.462 130.797 600.525 137.266 600.525 145.797C600.525 154.797 598.494 161.656 594.431 166.375C590.4 171.094 585.197 173.453 578.822 173.453C574.759 173.453 571.384 172.438 568.697 170.406C567.228 169.281 565.791 167.641 564.384 165.484V192.109H551.166V120.906H563.962V128.453C565.4 126.234 566.931 124.484 568.556 123.203C571.525 120.922 575.056 119.781 579.15 119.781C585.119 119.781 590.181 121.984 594.337 126.391ZM586.744 146.453C586.744 142.516 585.837 139.031 584.025 136C582.244 132.969 579.337 131.453 575.306 131.453C570.462 131.453 567.134 133.75 565.322 138.344C564.384 140.781 563.916 143.875 563.916 147.625C563.916 153.562 565.494 157.734 568.65 160.141C570.525 161.547 572.744 162.25 575.306 162.25C579.025 162.25 581.853 160.812 583.791 157.938C585.759 155.062 586.744 151.234 586.744 146.453ZM662.438 127.375C666.75 132.781 668.906 139.172 668.906 146.547C668.906 154.047 666.75 160.469 662.438 165.812C658.125 171.125 651.578 173.781 642.797 173.781C634.016 173.781 627.469 171.125 623.156 165.812C618.844 160.469 616.688 154.047 616.688 146.547C616.688 139.172 618.844 132.781 623.156 127.375C627.469 121.969 634.016 119.266 642.797 119.266C651.578 119.266 658.125 121.969 662.438 127.375ZM642.75 130.562C638.844 130.562 635.828 131.953 633.703 134.734C631.609 137.484 630.562 141.422 630.562 146.547C630.562 151.672 631.609 155.625 633.703 158.406C635.828 161.188 638.844 162.578 642.75 162.578C646.656 162.578 649.656 161.188 651.75 158.406C653.844 155.625 654.891 151.672 654.891 146.547C654.891 141.422 653.844 137.484 651.75 134.734C649.656 131.953 646.656 130.562 642.75 130.562ZM726.881 172L718.866 134.781L710.756 172H696.881L682.538 120.906H696.881L704.85 157.562L712.209 120.906H725.756L733.538 157.703L741.506 120.906H755.428L740.616 172H726.881ZM816.169 157C815.825 160.031 814.247 163.109 811.434 166.234C807.059 171.203 800.934 173.688 793.059 173.688C786.559 173.688 780.825 171.594 775.856 167.406C770.888 163.219 768.403 156.406 768.403 146.969C768.403 138.125 770.638 131.344 775.106 126.625C779.606 121.906 785.434 119.547 792.591 119.547C796.841 119.547 800.669 120.344 804.075 121.938C807.481 123.531 810.294 126.047 812.513 129.484C814.513 132.516 815.809 136.031 816.403 140.031C816.747 142.375 816.888 145.75 816.825 150.156H781.856C782.044 155.281 783.653 158.875 786.684 160.938C788.528 162.219 790.747 162.859 793.341 162.859C796.091 162.859 798.325 162.078 800.044 160.516C800.981 159.672 801.809 158.5 802.528 157H816.169ZM802.95 141.344C802.731 137.812 801.653 135.141 799.716 133.328C797.809 131.484 795.434 130.562 792.591 130.562C789.497 130.562 787.091 131.531 785.372 133.469C783.684 135.406 782.622 138.031 782.184 141.344H802.95ZM861.159 133.234C855.784 133.234 852.175 134.984 850.331 138.484C849.3 140.453 848.784 143.484 848.784 147.578V172H835.331V120.906H848.081V129.812C850.144 126.406 851.941 124.078 853.472 122.828C855.972 120.734 859.222 119.688 863.222 119.688C863.472 119.688 863.675 119.703 863.831 119.734C864.019 119.734 864.409 119.75 865.003 119.781V133.469C864.159 133.375 863.409 133.312 862.753 133.281C862.097 133.25 861.566 133.234 861.159 133.234ZM967.969 141.812H934.406V159.578H972.656V172H920.297V102.906H970.969V115.141H934.406V129.812H967.969V141.812ZM994.35 126.438C997.881 121.938 1003.94 119.688 1012.54 119.688C1018.13 119.688 1023.1 120.797 1027.44 123.016C1031.79 125.234 1033.96 129.422 1033.96 135.578V159.016C1033.96 160.641 1033.99 162.609 1034.05 164.922C1034.15 166.672 1034.41 167.859 1034.85 168.484C1035.29 169.109 1035.94 169.625 1036.82 170.031V172H1022.29C1021.88 170.969 1021.6 170 1021.44 169.094C1021.29 168.188 1021.16 167.156 1021.07 166C1019.22 168 1017.1 169.703 1014.69 171.109C1011.82 172.766 1008.57 173.594 1004.94 173.594C1000.32 173.594 996.491 172.281 993.459 169.656C990.459 167 988.959 163.25 988.959 158.406C988.959 152.125 991.381 147.578 996.225 144.766C998.881 143.234 1002.79 142.141 1007.94 141.484L1012.49 140.922C1014.96 140.609 1016.72 140.219 1017.79 139.75C1019.69 138.938 1020.65 137.672 1020.65 135.953C1020.65 133.859 1019.91 132.422 1018.44 131.641C1017.01 130.828 1014.88 130.422 1012.07 130.422C1008.91 130.422 1006.68 131.203 1005.37 132.766C1004.43 133.922 1003.8 135.484 1003.49 137.453H990.6C990.881 132.984 992.131 129.312 994.35 126.438ZM1004.29 162.344C1005.54 163.375 1007.07 163.891 1008.88 163.891C1011.76 163.891 1014.4 163.047 1016.8 161.359C1019.24 159.672 1020.51 156.594 1020.6 152.125V147.156C1019.76 147.688 1018.9 148.125 1018.02 148.469C1017.18 148.781 1016.01 149.078 1014.51 149.359L1011.51 149.922C1008.69 150.422 1006.68 151.031 1005.46 151.75C1003.4 152.969 1002.37 154.859 1002.37 157.422C1002.37 159.703 1003.01 161.344 1004.29 162.344ZM1081.15 133.234C1075.78 133.234 1072.17 134.984 1070.33 138.484C1069.29 140.453 1068.78 143.484 1068.78 147.578V172H1055.33V120.906H1068.08V129.812C1070.14 126.406 1071.93 124.078 1073.47 122.828C1075.97 120.734 1079.22 119.688 1083.22 119.688C1083.47 119.688 1083.67 119.703 1083.83 119.734C1084.01 119.734 1084.4 119.75 1085 119.781V133.469C1084.15 133.375 1083.4 133.312 1082.75 133.281C1082.09 133.25 1081.56 133.234 1081.15 133.234ZM1125.86 162.484V172.469L1119.53 172.703C1113.22 172.922 1108.91 171.828 1106.6 169.422C1105.1 167.891 1104.35 165.531 1104.35 162.344V130.891H1097.22V121.375H1104.35V107.125H1117.57V121.375H1125.86V130.891H1117.57V157.891C1117.57 159.984 1117.83 161.297 1118.36 161.828C1118.89 162.328 1120.52 162.578 1123.24 162.578C1123.64 162.578 1124.07 162.578 1124.5 162.578C1124.97 162.547 1125.42 162.516 1125.86 162.484ZM1190.21 142V172H1176.57V140.922C1176.57 138.172 1176.1 135.953 1175.17 134.266C1173.95 131.891 1171.63 130.703 1168.23 130.703C1164.7 130.703 1162.01 131.891 1160.17 134.266C1158.35 136.609 1157.45 139.969 1157.45 144.344V172H1144.13V103.141H1157.45V127.562C1159.38 124.594 1161.62 122.531 1164.15 121.375C1166.71 120.188 1169.4 119.594 1172.21 119.594C1175.37 119.594 1178.23 120.141 1180.79 121.234C1183.38 122.328 1185.51 124 1187.17 126.25C1188.57 128.156 1189.43 130.125 1189.74 132.156C1190.06 134.156 1190.21 137.438 1190.21 142Z" fill="black"/>
</svg>
